<svg xmlns="http://www.w3.org/2000/svg" viewBox="0 0 264 264" width="264" height="264" role="img" aria-label="Heavy Ball — soccer enemy">
  <title>Heavy Ball — soccer enemy</title>
  <defs>
    <radialGradient id="bg" cx="50%" cy="42%" r="72%">
      <stop offset="0%" stop-color="#d9f99d" stop-opacity="0.20"/>
      <stop offset="100%" stop-color="#061407" stop-opacity="0"/>
    </radialGradient>
    <filter id="soft" x="-30%" y="-30%" width="160%" height="160%">
      <feGaussianBlur stdDeviation="6"/>
    </filter>
  </defs>
  <rect width="264" height="264" fill="#061407"/>
  <rect width="264" height="264" fill="url(#bg)"/>
  <ellipse cx="132" cy="132" rx="53.31" ry="53.31" fill="#264d2e"/>
    <polygon points="142.29,96.35 164.68,96.35 167.04,95.23 144.64,95.23" fill="#4a5c6e" opacity="0.72"/><polygon points="142.29,118.75 164.68,118.75 164.68,96.35 142.29,96.35" fill="#4a5c6e"/>
    <polygon points="88.01,96.35 110.4,96.35 112.75,95.23 90.36,95.23" fill="#4a5c6e" opacity="0.72"/><polygon points="88.01,118.75 110.4,118.75 110.4,96.35 88.01,96.35" fill="#4a5c6e"/>
    <polygon points="88.01,150.64 110.4,150.64 112.75,149.52 90.36,149.52" fill="#4a5c6e" opacity="0.72"/><polygon points="88.01,173.03 110.4,173.03 110.4,150.64 88.01,150.64" fill="#4a5c6e"/>
    <polygon points="142.29,150.64 164.68,150.64 167.04,149.52 144.64,149.52" fill="#4a5c6e" opacity="0.72"/><polygon points="142.29,173.03 164.68,173.03 164.68,150.64 142.29,150.64" fill="#4a5c6e"/>
    <ellipse cx="104.35" cy="87.86" rx="11.73" ry="11.73" fill="dark"/>
    <ellipse cx="146.13" cy="182.27" rx="11.73" ry="11.73" fill="dark"/>
    <ellipse cx="81.83" cy="147.24" rx="11.73" ry="11.73" fill="dark"/>
    <ellipse cx="144.07" cy="134.04" rx="11.73" ry="11.73" fill="dark"/>
</svg>
