<svg xmlns="http://www.w3.org/2000/svg" viewBox="0 0 360 231" width="360" height="231" role="img" aria-label="Docking Bay — 18x11 funnel plan">
  <title>Docking Bay — 18x11 funnel plan</title>
  <defs>
    <radialGradient id="bg" cx="50%" cy="42%" r="72%">
      <stop offset="0%" stop-color="#9d7cff" stop-opacity="0.20"/>
      <stop offset="100%" stop-color="#05040d" stop-opacity="0"/>
    </radialGradient>
    <filter id="soft" x="-30%" y="-30%" width="160%" height="160%">
      <feGaussianBlur stdDeviation="6"/>
    </filter>
  </defs>
  <rect width="360" height="231" fill="#05040d"/>
  <rect width="360" height="231" fill="url(#bg)"/>
  <rect x="14.0" y="14.0" width="17.4" height="17.4" fill="#30344f" opacity="0.5"/><rect x="32.4" y="14.0" width="17.4" height="17.4" fill="#30344f" opacity="0.5"/><rect x="50.9" y="14.0" width="17.4" height="17.4" fill="#30344f" opacity="0.5"/><rect x="69.3" y="14.0" width="17.4" height="17.4" fill="#30344f" opacity="0.5"/><rect x="87.8" y="14.0" width="17.4" height="17.4" fill="#30344f" opacity="0.5"/><rect x="106.2" y="14.0" width="17.4" height="17.4" fill="#30344f" opacity="0.5"/><rect x="124.7" y="14.0" width="17.4" height="17.4" fill="#30344f" opacity="0.5"/><rect x="143.1" y="14.0" width="17.4" height="17.4" fill="#30344f" opacity="0.5"/><rect x="161.6" y="14.0" width="17.4" height="17.4" fill="#30344f" opacity="0.5"/><rect x="180.0" y="14.0" width="17.4" height="17.4" fill="#30344f" opacity="0.5"/><rect x="198.4" y="14.0" width="17.4" height="17.4" fill="#30344f" opacity="0.5"/><rect x="216.9" y="14.0" width="17.4" height="17.4" fill="#30344f" opacity="0.5"/><rect x="235.3" y="14.0" width="17.4" height="17.4" fill="#30344f" opacity="0.5"/><rect x="253.8" y="14.0" width="17.4" height="17.4" fill="#30344f" opacity="0.5"/><rect x="272.2" y="14.0" width="17.4" height="17.4" fill="#30344f" opacity="0.5"/><rect x="290.7" y="14.0" width="17.4" height="17.4" fill="#30344f" opacity="0.5"/><rect x="309.1" y="14.0" width="17.4" height="17.4" fill="#30344f" opacity="0.5"/><rect x="327.6" y="14.0" width="17.4" height="17.4" fill="#30344f" opacity="0.5"/><rect x="14.0" y="32.4" width="17.4" height="17.4" fill="#30344f" opacity="0.5"/><rect x="32.4" y="32.4" width="17.4" height="17.4" fill="#30344f" opacity="0.5"/><rect x="50.9" y="32.4" width="17.4" height="17.4" fill="#30344f" opacity="0.5"/><rect x="69.3" y="32.4" width="17.4" height="17.4" fill="#30344f" opacity="0.5"/><rect x="87.8" y="32.4" width="17.4" height="17.4" fill="#30344f" opacity="0.5"/><rect x="106.2" y="32.4" width="17.4" height="17.4" fill="#30344f" opacity="0.5"/><rect x="124.7" y="32.4" width="17.4" height="17.4" fill="#30344f" opacity="0.5"/><rect x="143.1" y="32.4" width="17.4" height="17.4" fill="#30344f" opacity="0.5"/><rect x="161.6" y="32.4" width="17.4" height="17.4" fill="#30344f" opacity="0.5"/><rect x="180.0" y="32.4" width="17.4" height="17.4" fill="#30344f" opacity="0.5"/><rect x="198.4" y="32.4" width="17.4" height="17.4" fill="#30344f" opacity="0.5"/><rect x="216.9" y="32.4" width="17.4" height="17.4" fill="#30344f" opacity="0.5"/><rect x="235.3" y="32.4" width="17.4" height="17.4" fill="#30344f" opacity="0.5"/><rect x="253.8" y="32.4" width="17.4" height="17.4" fill="#30344f" opacity="0.5"/><rect x="272.2" y="32.4" width="17.4" height="17.4" fill="#30344f" opacity="0.5"/><rect x="290.7" y="32.4" width="17.4" height="17.4" fill="#30344f" opacity="0.5"/><rect x="309.1" y="32.4" width="17.4" height="17.4" fill="#30344f" opacity="0.5"/><rect x="327.6" y="32.4" width="17.4" height="17.4" fill="#30344f" opacity="0.5"/><rect x="14.0" y="50.9" width="17.4" height="17.4" fill="#30344f" opacity="0.5"/><rect x="32.4" y="50.9" width="17.4" height="17.4" fill="#30344f" opacity="0.5"/><rect x="50.9" y="50.9" width="17.4" height="17.4" fill="#30344f" opacity="0.5"/><rect x="69.3" y="50.9" width="17.4" height="17.4" fill="#30344f" opacity="0.5"/><rect x="87.8" y="50.9" width="17.4" height="17.4" fill="#30344f" opacity="0.5"/><rect x="106.2" y="50.9" width="17.4" height="17.4" fill="#30344f" opacity="0.5"/><rect x="124.7" y="50.9" width="17.4" height="17.4" fill="#30344f" opacity="0.5"/><rect x="143.1" y="50.9" width="17.4" height="17.4" fill="#30344f" opacity="0.5"/><rect x="161.6" y="50.9" width="17.4" height="17.4" fill="#30344f" opacity="0.5"/><rect x="180.0" y="50.9" width="17.4" height="17.4" fill="#30344f" opacity="0.5"/><rect x="198.4" y="50.9" width="17.4" height="17.4" fill="#30344f" opacity="0.5"/><rect x="216.9" y="50.9" width="17.4" height="17.4" fill="#30344f" opacity="0.5"/><rect x="235.3" y="50.9" width="17.4" height="17.4" fill="#30344f" opacity="0.5"/><rect x="253.8" y="50.9" width="17.4" height="17.4" fill="#30344f" opacity="0.5"/><rect x="272.2" y="50.9" width="17.4" height="17.4" fill="#30344f" opacity="0.5"/><rect x="290.7" y="50.9" width="17.4" height="17.4" fill="#30344f" opacity="0.5"/><rect x="309.1" y="50.9" width="17.4" height="17.4" fill="#30344f" opacity="0.5"/><rect x="327.6" y="50.9" width="17.4" height="17.4" fill="#30344f" opacity="0.5"/><rect x="14.0" y="69.3" width="17.4" height="17.4" fill="#30344f" opacity="0.5"/><rect x="32.4" y="69.3" width="17.4" height="17.4" fill="#30344f" opacity="0.5"/><rect x="50.9" y="69.3" width="17.4" height="17.4" fill="#30344f" opacity="0.5"/><rect x="69.3" y="69.3" width="17.4" height="17.4" fill="#30344f" opacity="0.5"/><rect x="87.8" y="69.3" width="17.4" height="17.4" fill="#30344f" opacity="0.5"/><rect x="106.2" y="69.3" width="17.4" height="17.4" fill="#30344f" opacity="0.5"/><rect x="124.7" y="69.3" width="17.4" height="17.4" fill="#30344f" opacity="0.5"/><rect x="143.1" y="69.3" width="17.4" height="17.4" fill="#30344f" opacity="0.5"/><rect x="161.6" y="69.3" width="17.4" height="17.4" fill="#30344f" opacity="0.5"/><rect x="180.0" y="69.3" width="17.4" height="17.4" fill="#30344f" opacity="0.5"/><rect x="198.4" y="69.3" width="17.4" height="17.4" fill="#30344f" opacity="0.5"/><rect x="216.9" y="69.3" width="17.4" height="17.4" fill="#30344f" opacity="0.5"/><rect x="235.3" y="69.3" width="17.4" height="17.4" fill="#30344f" opacity="0.5"/><rect x="253.8" y="69.3" width="17.4" height="17.4" fill="#30344f" opacity="0.5"/><rect x="272.2" y="69.3" width="17.4" height="17.4" fill="#30344f" opacity="0.5"/><rect x="290.7" y="69.3" width="17.4" height="17.4" fill="#30344f" opacity="0.5"/><rect x="309.1" y="69.3" width="17.4" height="17.4" fill="#30344f" opacity="0.5"/><rect x="327.6" y="69.3" width="17.4" height="17.4" fill="#30344f" opacity="0.5"/><rect x="14.0" y="87.8" width="17.4" height="17.4" fill="#30344f" opacity="0.5"/><rect x="32.4" y="87.8" width="17.4" height="17.4" fill="#30344f" opacity="0.5"/><rect x="50.9" y="87.8" width="17.4" height="17.4" fill="#30344f" opacity="0.5"/><rect x="69.3" y="87.8" width="17.4" height="17.4" fill="#30344f" opacity="0.5"/><rect x="87.8" y="87.8" width="17.4" height="17.4" fill="#30344f" opacity="0.5"/><rect x="106.2" y="87.8" width="17.4" height="17.4" fill="#30344f" opacity="0.5"/><rect x="124.7" y="87.8" width="17.4" height="17.4" fill="#30344f" opacity="0.5"/><rect x="143.1" y="87.8" width="17.4" height="17.4" fill="#30344f" opacity="0.5"/><rect x="161.6" y="87.8" width="17.4" height="17.4" fill="#30344f" opacity="0.5"/><rect x="180.0" y="87.8" width="17.4" height="17.4" fill="#30344f" opacity="0.5"/><rect x="198.4" y="87.8" width="17.4" height="17.4" fill="#30344f" opacity="0.5"/><rect x="216.9" y="87.8" width="17.4" height="17.4" fill="#30344f" opacity="0.5"/><rect x="235.3" y="87.8" width="17.4" height="17.4" fill="#30344f" opacity="0.5"/><rect x="253.8" y="87.8" width="17.4" height="17.4" fill="#30344f" opacity="0.5"/><rect x="272.2" y="87.8" width="17.4" height="17.4" fill="#30344f" opacity="0.5"/><rect x="290.7" y="87.8" width="17.4" height="17.4" fill="#30344f" opacity="0.5"/><rect x="309.1" y="87.8" width="17.4" height="17.4" fill="#30344f" opacity="0.5"/><rect x="327.6" y="87.8" width="17.4" height="17.4" fill="#30344f" opacity="0.5"/><rect x="14.0" y="106.2" width="17.4" height="17.4" fill="#30344f" opacity="0.5"/><rect x="32.4" y="106.2" width="17.4" height="17.4" fill="#30344f" opacity="0.5"/><rect x="50.9" y="106.2" width="17.4" height="17.4" fill="#30344f" opacity="0.5"/><rect x="69.3" y="106.2" width="17.4" height="17.4" fill="#30344f" opacity="0.5"/><rect x="87.8" y="106.2" width="17.4" height="17.4" fill="#30344f" opacity="0.5"/><rect x="106.2" y="106.2" width="17.4" height="17.4" fill="#30344f" opacity="0.5"/><rect x="124.7" y="106.2" width="17.4" height="17.4" fill="#30344f" opacity="0.5"/><rect x="143.1" y="106.2" width="17.4" height="17.4" fill="#30344f" opacity="0.5"/><rect x="161.6" y="106.2" width="17.4" height="17.4" fill="#30344f" opacity="0.5"/><rect x="180.0" y="106.2" width="17.4" height="17.4" fill="#30344f" opacity="0.5"/><rect x="198.4" y="106.2" width="17.4" height="17.4" fill="#30344f" opacity="0.5"/><rect x="216.9" y="106.2" width="17.4" height="17.4" fill="#30344f" opacity="0.5"/><rect x="235.3" y="106.2" width="17.4" height="17.4" fill="#30344f" opacity="0.5"/><rect x="253.8" y="106.2" width="17.4" height="17.4" fill="#30344f" opacity="0.5"/><rect x="272.2" y="106.2" width="17.4" height="17.4" fill="#30344f" opacity="0.5"/><rect x="290.7" y="106.2" width="17.4" height="17.4" fill="#30344f" opacity="0.5"/><rect x="309.1" y="106.2" width="17.4" height="17.4" fill="#30344f" opacity="0.5"/><rect x="327.6" y="106.2" width="17.4" height="17.4" fill="#30344f" opacity="0.5"/><rect x="14.0" y="124.7" width="17.4" height="17.4" fill="#30344f" opacity="0.5"/><rect x="32.4" y="124.7" width="17.4" height="17.4" fill="#30344f" opacity="0.5"/><rect x="50.9" y="124.7" width="17.4" height="17.4" fill="#30344f" opacity="0.5"/><rect x="69.3" y="124.7" width="17.4" height="17.4" fill="#30344f" opacity="0.5"/><rect x="87.8" y="124.7" width="17.4" height="17.4" fill="#30344f" opacity="0.5"/><rect x="106.2" y="124.7" width="17.4" height="17.4" fill="#30344f" opacity="0.5"/><rect x="124.7" y="124.7" width="17.4" height="17.4" fill="#30344f" opacity="0.5"/><rect x="143.1" y="124.7" width="17.4" height="17.4" fill="#30344f" opacity="0.5"/><rect x="161.6" y="124.7" width="17.4" height="17.4" fill="#30344f" opacity="0.5"/><rect x="180.0" y="124.7" width="17.4" height="17.4" fill="#30344f" opacity="0.5"/><rect x="198.4" y="124.7" width="17.4" height="17.4" fill="#30344f" opacity="0.5"/><rect x="216.9" y="124.7" width="17.4" height="17.4" fill="#30344f" opacity="0.5"/><rect x="235.3" y="124.7" width="17.4" height="17.4" fill="#30344f" opacity="0.5"/><rect x="253.8" y="124.7" width="17.4" height="17.4" fill="#30344f" opacity="0.5"/><rect x="272.2" y="124.7" width="17.4" height="17.4" fill="#30344f" opacity="0.5"/><rect x="290.7" y="124.7" width="17.4" height="17.4" fill="#30344f" opacity="0.5"/><rect x="309.1" y="124.7" width="17.4" height="17.4" fill="#30344f" opacity="0.5"/><rect x="327.6" y="124.7" width="17.4" height="17.4" fill="#30344f" opacity="0.5"/><rect x="14.0" y="143.1" width="17.4" height="17.4" fill="#30344f" opacity="0.5"/><rect x="32.4" y="143.1" width="17.4" height="17.4" fill="#30344f" opacity="0.5"/><rect x="50.9" y="143.1" width="17.4" height="17.4" fill="#30344f" opacity="0.5"/><rect x="69.3" y="143.1" width="17.4" height="17.4" fill="#30344f" opacity="0.5"/><rect x="87.8" y="143.1" width="17.4" height="17.4" fill="#30344f" opacity="0.5"/><rect x="106.2" y="143.1" width="17.4" height="17.4" fill="#30344f" opacity="0.5"/><rect x="124.7" y="143.1" width="17.4" height="17.4" fill="#30344f" opacity="0.5"/><rect x="143.1" y="143.1" width="17.4" height="17.4" fill="#30344f" opacity="0.5"/><rect x="161.6" y="143.1" width="17.4" height="17.4" fill="#30344f" opacity="0.5"/><rect x="180.0" y="143.1" width="17.4" height="17.4" fill="#30344f" opacity="0.5"/><rect x="198.4" y="143.1" width="17.4" height="17.4" fill="#30344f" opacity="0.5"/><rect x="216.9" y="143.1" width="17.4" height="17.4" fill="#30344f" opacity="0.5"/><rect x="235.3" y="143.1" width="17.4" height="17.4" fill="#30344f" opacity="0.5"/><rect x="253.8" y="143.1" width="17.4" height="17.4" fill="#30344f" opacity="0.5"/><rect x="272.2" y="143.1" width="17.4" height="17.4" fill="#30344f" opacity="0.5"/><rect x="290.7" y="143.1" width="17.4" height="17.4" fill="#30344f" opacity="0.5"/><rect x="309.1" y="143.1" width="17.4" height="17.4" fill="#30344f" opacity="0.5"/><rect x="327.6" y="143.1" width="17.4" height="17.4" fill="#30344f" opacity="0.5"/><rect x="14.0" y="161.6" width="17.4" height="17.4" fill="#30344f" opacity="0.5"/><rect x="32.4" y="161.6" width="17.4" height="17.4" fill="#30344f" opacity="0.5"/><rect x="50.9" y="161.6" width="17.4" height="17.4" fill="#30344f" opacity="0.5"/><rect x="69.3" y="161.6" width="17.4" height="17.4" fill="#30344f" opacity="0.5"/><rect x="87.8" y="161.6" width="17.4" height="17.4" fill="#30344f" opacity="0.5"/><rect x="106.2" y="161.6" width="17.4" height="17.4" fill="#30344f" opacity="0.5"/><rect x="124.7" y="161.6" width="17.4" height="17.4" fill="#30344f" opacity="0.5"/><rect x="143.1" y="161.6" width="17.4" height="17.4" fill="#30344f" opacity="0.5"/><rect x="161.6" y="161.6" width="17.4" height="17.4" fill="#30344f" opacity="0.5"/><rect x="180.0" y="161.6" width="17.4" height="17.4" fill="#30344f" opacity="0.5"/><rect x="198.4" y="161.6" width="17.4" height="17.4" fill="#30344f" opacity="0.5"/><rect x="216.9" y="161.6" width="17.4" height="17.4" fill="#30344f" opacity="0.5"/><rect x="235.3" y="161.6" width="17.4" height="17.4" fill="#30344f" opacity="0.5"/><rect x="253.8" y="161.6" width="17.4" height="17.4" fill="#30344f" opacity="0.5"/><rect x="272.2" y="161.6" width="17.4" height="17.4" fill="#30344f" opacity="0.5"/><rect x="290.7" y="161.6" width="17.4" height="17.4" fill="#30344f" opacity="0.5"/><rect x="309.1" y="161.6" width="17.4" height="17.4" fill="#30344f" opacity="0.5"/><rect x="327.6" y="161.6" width="17.4" height="17.4" fill="#30344f" opacity="0.5"/><rect x="14.0" y="180.0" width="17.4" height="17.4" fill="#30344f" opacity="0.5"/><rect x="32.4" y="180.0" width="17.4" height="17.4" fill="#30344f" opacity="0.5"/><rect x="50.9" y="180.0" width="17.4" height="17.4" fill="#30344f" opacity="0.5"/><rect x="69.3" y="180.0" width="17.4" height="17.4" fill="#30344f" opacity="0.5"/><rect x="87.8" y="180.0" width="17.4" height="17.4" fill="#30344f" opacity="0.5"/><rect x="106.2" y="180.0" width="17.4" height="17.4" fill="#30344f" opacity="0.5"/><rect x="124.7" y="180.0" width="17.4" height="17.4" fill="#30344f" opacity="0.5"/><rect x="143.1" y="180.0" width="17.4" height="17.4" fill="#30344f" opacity="0.5"/><rect x="161.6" y="180.0" width="17.4" height="17.4" fill="#30344f" opacity="0.5"/><rect x="180.0" y="180.0" width="17.4" height="17.4" fill="#30344f" opacity="0.5"/><rect x="198.4" y="180.0" width="17.4" height="17.4" fill="#30344f" opacity="0.5"/><rect x="216.9" y="180.0" width="17.4" height="17.4" fill="#30344f" opacity="0.5"/><rect x="235.3" y="180.0" width="17.4" height="17.4" fill="#30344f" opacity="0.5"/><rect x="253.8" y="180.0" width="17.4" height="17.4" fill="#30344f" opacity="0.5"/><rect x="272.2" y="180.0" width="17.4" height="17.4" fill="#30344f" opacity="0.5"/><rect x="290.7" y="180.0" width="17.4" height="17.4" fill="#30344f" opacity="0.5"/><rect x="309.1" y="180.0" width="17.4" height="17.4" fill="#30344f" opacity="0.5"/><rect x="327.6" y="180.0" width="17.4" height="17.4" fill="#30344f" opacity="0.5"/><rect x="14.0" y="198.4" width="17.4" height="17.4" fill="#30344f" opacity="0.5"/><rect x="32.4" y="198.4" width="17.4" height="17.4" fill="#30344f" opacity="0.5"/><rect x="50.9" y="198.4" width="17.4" height="17.4" fill="#30344f" opacity="0.5"/><rect x="69.3" y="198.4" width="17.4" height="17.4" fill="#30344f" opacity="0.5"/><rect x="87.8" y="198.4" width="17.4" height="17.4" fill="#30344f" opacity="0.5"/><rect x="106.2" y="198.4" width="17.4" height="17.4" fill="#30344f" opacity="0.5"/><rect x="124.7" y="198.4" width="17.4" height="17.4" fill="#30344f" opacity="0.5"/><rect x="143.1" y="198.4" width="17.4" height="17.4" fill="#30344f" opacity="0.5"/><rect x="161.6" y="198.4" width="17.4" height="17.4" fill="#30344f" opacity="0.5"/><rect x="180.0" y="198.4" width="17.4" height="17.4" fill="#30344f" opacity="0.5"/><rect x="198.4" y="198.4" width="17.4" height="17.4" fill="#30344f" opacity="0.5"/><rect x="216.9" y="198.4" width="17.4" height="17.4" fill="#30344f" opacity="0.5"/><rect x="235.3" y="198.4" width="17.4" height="17.4" fill="#30344f" opacity="0.5"/><rect x="253.8" y="198.4" width="17.4" height="17.4" fill="#30344f" opacity="0.5"/><rect x="272.2" y="198.4" width="17.4" height="17.4" fill="#30344f" opacity="0.5"/><rect x="290.7" y="198.4" width="17.4" height="17.4" fill="#30344f" opacity="0.5"/><rect x="309.1" y="198.4" width="17.4" height="17.4" fill="#30344f" opacity="0.5"/><rect x="327.6" y="198.4" width="17.4" height="17.4" fill="#30344f" opacity="0.5"/>
  <circle cx="23.2" cy="115.4" r="7.7" fill="#ff3d81"/>
  <line x1="32.4" y1="115.4" x2="327.6" y2="115.4" stroke="#9d7cff" stroke-width="5.2" opacity="0.32" stroke-linecap="round" stroke-dasharray="11.1 7.4"/>
  <rect x="316.5" y="100.7" width="29.5" height="29.5" rx="5.5" fill="#67e8f9"/>
</svg>
