<svg xmlns="http://www.w3.org/2000/svg" viewBox="0 0 404 340" width="404" height="340" role="img" aria-label="Hockey Arena palette">
  <title>Hockey Arena palette</title>
  <defs>
    <radialGradient id="bg" cx="50%" cy="42%" r="72%">
      <stop offset="0%" stop-color="#00d4ff" stop-opacity="0.20"/>
      <stop offset="100%" stop-color="#06111f" stop-opacity="0"/>
    </radialGradient>
    <filter id="soft" x="-30%" y="-30%" width="160%" height="160%">
      <feGaussianBlur stdDeviation="6"/>
    </filter>
  </defs>
  <rect width="404" height="340" fill="#06111f"/>
  <rect width="404" height="340" fill="url(#bg)"/>
  <text x="20" y="34" font-family="ui-sans-serif,system-ui" font-size="19" font-weight="600" fill="#00d4ff">🏒 Hockey Arena</text>
  <rect x="20" y="56" width="108" height="52" rx="8" fill="#06111f" stroke="#ffffff" stroke-opacity="0.16"/>
  <text x="20" y="124" font-family="ui-monospace,monospace" font-size="11" fill="#ffffff" opacity="0.72">background</text>
  <text x="20" y="138" font-family="ui-monospace,monospace" font-size="11" fill="#06111f">#06111f</text>
  <rect x="148" y="56" width="108" height="52" rx="8" fill="#4f8fae" stroke="#ffffff" stroke-opacity="0.16"/>
  <text x="148" y="124" font-family="ui-monospace,monospace" font-size="11" fill="#ffffff" opacity="0.72">floor</text>
  <text x="148" y="138" font-family="ui-monospace,monospace" font-size="11" fill="#4f8fae">#4f8fae</text>
  <rect x="276" y="56" width="108" height="52" rx="8" fill="#80dfff" stroke="#ffffff" stroke-opacity="0.16"/>
  <text x="276" y="124" font-family="ui-monospace,monospace" font-size="11" fill="#ffffff" opacity="0.72">path</text>
  <text x="276" y="138" font-family="ui-monospace,monospace" font-size="11" fill="#80dfff">#80dfff</text>
  <rect x="20" y="148" width="108" height="52" rx="8" fill="#00d4ff" stroke="#ffffff" stroke-opacity="0.16"/>
  <text x="20" y="216" font-family="ui-monospace,monospace" font-size="11" fill="#ffffff" opacity="0.72">accent</text>
  <text x="20" y="230" font-family="ui-monospace,monospace" font-size="11" fill="#00d4ff">#00d4ff</text>
  <rect x="148" y="148" width="108" height="52" rx="8" fill="#071426" stroke="#ffffff" stroke-opacity="0.16"/>
  <text x="148" y="216" font-family="ui-monospace,monospace" font-size="11" fill="#ffffff" opacity="0.72">tower base</text>
  <text x="148" y="230" font-family="ui-monospace,monospace" font-size="11" fill="#071426">#071426</text>
  <rect x="276" y="148" width="108" height="52" rx="8" fill="#8fb8cc" stroke="#ffffff" stroke-opacity="0.16"/>
  <text x="276" y="216" font-family="ui-monospace,monospace" font-size="11" fill="#ffffff" opacity="0.72">tower metal</text>
  <text x="276" y="230" font-family="ui-monospace,monospace" font-size="11" fill="#8fb8cc">#8fb8cc</text>
  <rect x="20" y="240" width="108" height="52" rx="8" fill="#00d4ff" stroke="#ffffff" stroke-opacity="0.16"/>
  <text x="20" y="308" font-family="ui-monospace,monospace" font-size="11" fill="#ffffff" opacity="0.72">glow</text>
  <text x="20" y="322" font-family="ui-monospace,monospace" font-size="11" fill="#00d4ff">#00d4ff</text>
  <rect x="148" y="240" width="108" height="52" rx="8" fill="#ef4444" stroke="#ffffff" stroke-opacity="0.16"/>
  <text x="148" y="308" font-family="ui-monospace,monospace" font-size="11" fill="#ffffff" opacity="0.72">spawn</text>
  <text x="148" y="322" font-family="ui-monospace,monospace" font-size="11" fill="#ef4444">#ef4444</text>
  <rect x="276" y="240" width="108" height="52" rx="8" fill="#fbbf24" stroke="#ffffff" stroke-opacity="0.16"/>
  <text x="276" y="308" font-family="ui-monospace,monospace" font-size="11" fill="#ffffff" opacity="0.72">base</text>
  <text x="276" y="322" font-family="ui-monospace,monospace" font-size="11" fill="#fbbf24">#fbbf24</text>
</svg>
